<svg width="53" height="6" viewBox="0 0 53 6" fill="none" xmlns="http://www.w3.org/2000/svg">
<path d="M2 0.589905C0.89543 0.589905 0 1.48534 0 2.5899C0 3.69447 0.89543 4.5899 2 4.5899V2.5899V0.589905ZM2.1 2.5899V4.5899H2.17632L2.25242 4.58409L2.1 2.5899ZM3.04 2.51806L3.19242 4.51224L3.27802 4.5057L3.36274 4.49185L3.04 2.51806ZM4.08 2.348L4.40274 4.32179L4.41471 4.31983L4.42665 4.31773L4.08 2.348ZM5.12 2.16498L6.24937 0.514363L5.57641 0.0539176L4.77335 0.195246L5.12 2.16498ZM6.16 2.87656L5.03063 4.52717L5.85544 5.09152L6.80196 4.77073L6.16 2.87656ZM7.2 2.52409L6.81079 0.562327L6.6822 0.587839L6.55804 0.629917L7.2 2.52409ZM8.24 2.31776L9.19227 0.55901L8.55813 0.215658L7.85079 0.355993L8.24 2.31776ZM9.28 2.88086L8.32773 4.63961L9.24236 5.13483L10.173 4.67043L9.28 2.88086ZM10.32 2.36189L11.0048 0.482782L10.1966 0.188272L9.427 0.572329L10.32 2.36189ZM11.36 2.74089L10.6752 4.62L11.3136 4.85264L11.9616 4.64828L11.36 2.74089ZM12.4 2.41288L11.944 0.465552L11.8705 0.482776L11.7984 0.505502L12.4 2.41288ZM13.44 2.16938L13.5743 0.173893L13.2756 0.153779L12.984 0.222043L13.44 2.16938ZM14.48 2.23939L15.4371 0.483299L15.052 0.273376L14.6143 0.243911L14.48 2.23939ZM15.52 2.80624L14.5629 4.56233L14.9135 4.75346L15.3107 4.79525L15.52 2.80624ZM16.56 2.91569L16.7704 0.926792L16.7693 0.926674L16.56 2.91569ZM17.6 3.02573L17.3896 5.01463L17.7811 5.05606L18.1591 4.94599L17.6 3.02573ZM18.64 2.72291L18.3678 0.74152L18.2221 0.761537L18.0809 0.802657L18.64 2.72291ZM19.68 2.58004L19.5407 0.584898L19.474 0.589554L19.4078 0.598651L19.68 2.58004ZM20.72 2.50744L20.8593 4.50259L20.9752 4.4945L21.0893 4.47305L20.72 2.50744ZM21.76 2.31204L22.7029 0.548256L22.0823 0.216489L21.3907 0.346433L21.76 2.31204ZM22.8 2.86802L21.8571 4.6318L22.196 4.81296L22.5779 4.85564L22.8 2.86802ZM23.84 2.98424L23.6179 4.97187L24.0396 5.019L24.4441 4.89081L23.84 2.98424ZM24.88 2.6547L24.8198 0.655602L24.5414 0.663985L24.2759 0.748125L24.88 2.6547ZM25.92 2.62338L26.1856 0.641089L26.0234 0.61936L25.8598 0.624286L25.92 2.62338ZM26.96 2.76271L26.6944 4.745L27.0076 4.78694L27.3183 4.73034L26.96 2.76271ZM28 2.5733L28.2427 0.588079L27.9408 0.551174L27.6416 0.605664L28 2.5733ZM29.04 2.70044L28.7973 4.68566L29.375 4.75629L29.9004 4.50593L29.04 2.70044ZM30.08 2.20486L30.5999 0.273623L29.8866 0.0815761L29.2196 0.399374L30.08 2.20486ZM31.12 2.48485L30.6001 4.41609L30.8401 4.48071L31.0887 4.4846L31.12 2.48485ZM32.16 2.50114L32.1287 4.5009L32.2503 4.5028L32.3713 4.48995L32.16 2.50114ZM33.2 2.39067L33.6169 0.434607L33.3054 0.368213L32.9887 0.401856L33.2 2.39067ZM34.24 2.61234L33.8231 4.5684L34.1343 4.63474L34.4507 4.60121L34.24 2.61234ZM35.28 2.50215L35.1186 0.508678L35.0939 0.510675L35.0693 0.513283L35.28 2.50215ZM36.32 2.41792L36.6054 0.438388L36.3827 0.406294L36.1586 0.424451L36.32 2.41792ZM37.36 2.56785L37.0746 4.54739L37.4194 4.59709L37.7606 4.52731L37.36 2.56785ZM38.4 2.35521L38.3932 0.355219L38.1942 0.355897L37.9994 0.395747L38.4 2.35521ZM39.44 2.35166L40.1811 0.494049L39.821 0.35035L39.4332 0.351672L39.44 2.35166ZM40.48 2.76659L39.7389 4.6242L40.0482 4.74763L40.3809 4.76413L40.48 2.76659ZM41.52 2.8182L41.4209 4.81574L41.6467 4.82695L41.8693 4.78746L41.52 2.8182ZM42.56 2.63374L43.0854 0.703972L42.6525 0.586122L42.2107 0.664474L42.56 2.63374ZM43.6 2.91687L43.0746 4.84663L43.3438 4.9199L43.6227 4.91674L43.6 2.91687ZM44.64 2.90507L44.6627 4.90494L44.8797 4.90248L45.0912 4.85352L44.64 2.90507ZM45.68 2.66426L46.1312 4.61271L46.2313 4.58953L46.3285 4.55621L45.68 2.66426ZM46.72 2.3078L47.6301 0.526888L46.8744 0.140657L46.0715 0.415845L46.72 2.3078ZM47.76 2.8393L46.8499 4.6202L47.8523 5.13252L48.8104 4.54128L47.76 2.8393ZM48.8 2.19747L49.4455 0.304505L48.5525 -7.62939e-06L47.7496 0.495488L48.8 2.19747ZM49.84 2.55211L49.1945 4.44508L49.4533 4.53335L49.7264 4.54888L49.84 2.55211ZM50.8438 2.60923L50.7301 4.606L52.8438 4.72628V2.60923H50.8438ZM52.8438 2.5899C52.8438 1.48534 51.9483 0.589905 50.8438 0.589905C49.7392 0.589905 48.8438 1.48534 48.8438 2.5899H50.8438H52.8438ZM2 2.5899V4.5899H2.1V2.5899V0.589905H2V2.5899ZM2.1 2.5899L2.25242 4.58409L3.19242 4.51224L3.04 2.51806L2.88758 0.523874L1.94758 0.595721L2.1 2.5899ZM3.04 2.51806L3.36274 4.49185L4.40274 4.32179L4.08 2.348L3.75726 0.374215L2.71726 0.54427L3.04 2.51806ZM4.08 2.348L4.42665 4.31773L5.46665 4.13471L5.12 2.16498L4.77335 0.195246L3.73335 0.378272L4.08 2.348ZM5.12 2.16498L3.99063 3.81559L5.03063 4.52717L6.16 2.87656L7.28937 1.22595L6.24937 0.514363L5.12 2.16498ZM6.16 2.87656L6.80196 4.77073L7.84196 4.41826L7.2 2.52409L6.55804 0.629917L5.51804 0.982384L6.16 2.87656ZM7.2 2.52409L7.58921 4.48585L8.62921 4.27952L8.24 2.31776L7.85079 0.355993L6.81079 0.562327L7.2 2.52409ZM8.24 2.31776L7.28773 4.0765L8.32773 4.63961L9.28 2.88086L10.2323 1.12211L9.19227 0.55901L8.24 2.31776ZM9.28 2.88086L10.173 4.67043L11.213 4.15146L10.32 2.36189L9.427 0.572329L8.387 1.0913L9.28 2.88086ZM10.32 2.36189L9.63521 4.24101L10.6752 4.62L11.36 2.74089L12.0448 0.861781L11.0048 0.482782L10.32 2.36189ZM11.36 2.74089L11.9616 4.64828L13.0016 4.32027L12.4 2.41288L11.7984 0.505502L10.7584 0.83351L11.36 2.74089ZM12.4 2.41288L12.856 4.36022L13.896 4.11671L13.44 2.16938L12.984 0.222043L11.944 0.465552L12.4 2.41288ZM13.44 2.16938L13.3057 4.16486L14.3457 4.23488L14.48 2.23939L14.6143 0.243911L13.5743 0.173893L13.44 2.16938ZM14.48 2.23939L13.5229 3.99549L14.5629 4.56233L15.52 2.80624L16.4771 1.05014L15.4371 0.483299L14.48 2.23939ZM15.52 2.80624L15.3107 4.79525L16.3507 4.90471L16.56 2.91569L16.7693 0.926674L15.7293 0.817223L15.52 2.80624ZM16.56 2.91569L16.3496 4.90459L17.3896 5.01463L17.6 3.02573L17.8104 1.03684L16.7704 0.926792L16.56 2.91569ZM17.6 3.02573L18.1591 4.94599L19.1991 4.64316L18.64 2.72291L18.0809 0.802657L17.0409 1.10548L17.6 3.02573ZM18.64 2.72291L18.9122 4.7043L19.9522 4.56143L19.68 2.58004L19.4078 0.598651L18.3678 0.74152L18.64 2.72291ZM19.68 2.58004L19.8193 4.57519L20.8593 4.50259L20.72 2.50744L20.5807 0.512297L19.5407 0.584898L19.68 2.58004ZM20.72 2.50744L21.0893 4.47305L22.1293 4.27765L21.76 2.31204L21.3907 0.346433L20.3507 0.541834L20.72 2.50744ZM21.76 2.31204L20.8171 4.07582L21.8571 4.6318L22.8 2.86802L23.7429 1.10423L22.7029 0.548256L21.76 2.31204ZM22.8 2.86802L22.5779 4.85564L23.6179 4.97187L23.84 2.98424L24.0621 0.996618L23.0221 0.880389L22.8 2.86802ZM23.84 2.98424L24.4441 4.89081L25.4841 4.56127L24.88 2.6547L24.2759 0.748125L23.2359 1.07767L23.84 2.98424ZM24.88 2.6547L24.9402 4.65379L25.9802 4.62247L25.92 2.62338L25.8598 0.624286L24.8198 0.655602L24.88 2.6547ZM25.92 2.62338L25.6544 4.60567L26.6944 4.745L26.96 2.76271L27.2256 0.780415L26.1856 0.641089L25.92 2.62338ZM26.96 2.76271L27.3183 4.73034L28.3584 4.54093L28 2.5733L27.6416 0.605664L26.6016 0.795071L26.96 2.76271ZM28 2.5733L27.7573 4.55852L28.7973 4.68566L29.04 2.70044L29.2827 0.715226L28.2427 0.588079L28 2.5733ZM29.04 2.70044L29.9004 4.50593L30.9404 4.01035L30.08 2.20486L29.2196 0.399374L28.1796 0.894957L29.04 2.70044ZM30.08 2.20486L29.5601 4.1361L30.6001 4.41609L31.12 2.48485L31.6399 0.553606L30.5999 0.273623L30.08 2.20486ZM31.12 2.48485L31.0887 4.4846L32.1287 4.5009L32.16 2.50114L32.1913 0.501389L31.1513 0.485091L31.12 2.48485ZM32.16 2.50114L32.3713 4.48995L33.4113 4.37948L33.2 2.39067L32.9887 0.401856L31.9487 0.512333L32.16 2.50114ZM33.2 2.39067L32.7831 4.34673L33.8231 4.5684L34.24 2.61234L34.6569 0.656282L33.6169 0.434607L33.2 2.39067ZM34.24 2.61234L34.4507 4.60121L35.4907 4.49102L35.28 2.50215L35.0693 0.513283L34.0293 0.623473L34.24 2.61234ZM35.28 2.50215L35.4414 4.49562L36.4814 4.4114L36.32 2.41792L36.1586 0.424451L35.1186 0.508678L35.28 2.50215ZM36.32 2.41792L36.0346 4.39746L37.0746 4.54739L37.36 2.56785L37.6454 0.588316L36.6054 0.438388L36.32 2.41792ZM37.36 2.56785L37.7606 4.52731L38.8006 4.31467L38.4 2.35521L37.9994 0.395747L36.9594 0.608392L37.36 2.56785ZM38.4 2.35521L38.4068 4.3552L39.4468 4.35165L39.44 2.35166L39.4332 0.351672L38.3932 0.355219L38.4 2.35521ZM39.44 2.35166L38.6989 4.20927L39.7389 4.6242L40.48 2.76659L41.2211 0.90898L40.1811 0.494049L39.44 2.35166ZM40.48 2.76659L40.3809 4.76413L41.4209 4.81574L41.52 2.8182L41.6191 0.820658L40.5791 0.76905L40.48 2.76659ZM41.52 2.8182L41.8693 4.78746L42.9093 4.603L42.56 2.63374L42.2107 0.664474L41.1707 0.848936L41.52 2.8182ZM42.56 2.63374L42.0346 4.5635L43.0746 4.84663L43.6 2.91687L44.1254 0.987101L43.0854 0.703972L42.56 2.63374ZM43.6 2.91687L43.6227 4.91674L44.6627 4.90494L44.64 2.90507L44.6173 0.9052L43.5773 0.916996L43.6 2.91687ZM44.64 2.90507L45.0912 4.85352L46.1312 4.61271L45.68 2.66426L45.2288 0.715811L44.1888 0.956622L44.64 2.90507ZM45.68 2.66426L46.3285 4.55621L47.3685 4.19975L46.72 2.3078L46.0715 0.415845L45.0315 0.772309L45.68 2.66426ZM46.72 2.3078L45.8099 4.0887L46.8499 4.6202L47.76 2.8393L48.6701 1.05839L47.6301 0.526888L46.72 2.3078ZM47.76 2.8393L48.8104 4.54128L49.8504 3.89945L48.8 2.19747L47.7496 0.495488L46.7096 1.13731L47.76 2.8393ZM48.8 2.19747L48.1545 4.09043L49.1945 4.44508L49.84 2.55211L50.4855 0.65915L49.4455 0.304505L48.8 2.19747ZM49.84 2.55211L49.7264 4.54888L50.7301 4.606L50.8438 2.60923L50.9574 0.612464L49.9536 0.555345L49.84 2.55211ZM50.8438 2.60923H52.8438V2.5899H50.8438H48.8438V2.60923H50.8438Z" fill="white"/>
</svg>